<svg xmlns="http://www.w3.org/2000/svg" width="80mm" height="80mm" viewBox="0 0 226.8 226.8"><defs><style>.a{fill:#fff;}.b{fill:#010101;}</style></defs><title>Loyalty_Stamp_15_Black</title><rect class="a" width="226.8" height="226.77"/><text></text><path class="b" d="M183.1,43.7c-10.2-10.2-23.8-15.3-40-15.3-25.5,0-55.3,13.6-78.2,36.6C47.1,82.8,34.3,104.9,30,127s0,42.5,13.6,56.1c10.2,10.2,23.8,15.3,40,15.3,25.5,0,55.3-13.6,78.2-36.6,17.9-17.9,30.6-40,34.9-62.1S196.7,57.3,183.1,43.7ZM47.1,130.4C50.5,111.7,61.5,93,77.7,77.7,96.4,57.3,121,45.4,143.1,45.4c3.4,0,6.8.9,10.2.9-24.7,8.5-51.9,28.9-48.5,68,3.4,40.8-38.3,51.9-51.9,53.6C46.2,158.5,43.7,145.7,47.1,130.4Zm132.7-34c-3.4,18.7-14.5,37.4-30.6,52.7-18.7,20.4-43.4,32.3-65.5,32.3-3.4,0-6.8-.9-10.2-.9,24.7-8.5,51.9-28.9,48.5-68-3.4-40.8,38.3-51.9,51.9-53.6C180.6,68.3,183.1,81.1,179.7,96.4Z" transform="translate(0 0)"/></svg>